<svg width="44" height="45" viewBox="0 0 44 45" fill="none" xmlns="http://www.w3.org/2000/svg">
<path d="M43.99 22.6079C43.99 10.1222 34.1422 0 21.995 0C9.84776 0 0 10.1222 0 22.6079C0 33.768 7.85821 43.0269 18.2059 44.8767V29.1231H12.5771V22.6387H18.2059V17.7369C18.2059 12.6501 20.9252 8.8068 26.354 8.8068C28.1536 8.8068 31.3929 9.23841 31.3929 9.23841V14.8493H28.2436C26.474 14.8493 25.0343 16.3291 25.0343 18.148V22.6387H31.1229L30.1931 29.1231H25.0343V45C35.7519 43.4894 44 34.0352 44 22.6079H43.99Z" fill="black"/>
</svg>
