<svg width="45" height="45" viewBox="0 0 45 45" fill="none" xmlns="http://www.w3.org/2000/svg">
<path d="M22.2699 18.0001C19.8399 18.0001 17.8699 20.0149 17.8699 22.5001C17.8699 24.9854 19.8399 27.0001 22.2699 27.0001C24.6999 27.0001 26.6699 24.9854 26.6699 22.5001C26.6699 20.0149 24.6999 18.0001 22.2699 18.0001Z" fill="black"/>
<path d="M28.0999 10.882H16.4299C13.3799 10.882 10.8999 13.4183 10.8999 16.5376V28.4729C10.8999 31.5922 13.3799 34.1286 16.4299 34.1286H28.0999C31.1499 34.1286 33.6299 31.5922 33.6299 28.4729V16.5376C33.6299 13.4183 31.1499 10.882 28.0999 10.882ZM22.2699 29.8433C18.3099 29.8433 15.0999 26.5501 15.0999 22.5104C15.0999 18.4706 18.3199 15.1774 22.2699 15.1774C26.2199 15.1774 29.4399 18.4706 29.4399 22.5104C29.4399 26.5501 26.2199 29.8433 22.2699 29.8433ZM29.7799 16.5888C28.8299 16.5888 28.0499 15.8013 28.0499 14.8195C28.0499 13.8376 28.8199 13.0501 29.7799 13.0501C30.7399 13.0501 31.5099 13.8376 31.5099 14.8195C31.5099 15.8013 30.7399 16.5888 29.7799 16.5888Z" fill="black"/>
<path d="M23.16 0H21.76C9.99996 0 0.459961 9.75682 0.459961 21.7841V23.2159C0.459961 35.2432 9.99996 45 21.76 45H23.16C34.92 45 44.46 35.2432 44.46 23.2159V21.7841C44.46 9.75682 34.92 0 23.16 0ZM36.4 28.4625C36.4 33.1466 32.67 36.9614 28.09 36.9614H16.42C11.84 36.9614 8.10996 33.1466 8.10996 28.4625V16.5273C8.10996 11.8432 11.84 8.02841 16.42 8.02841H28.09C32.67 8.02841 36.4 11.8432 36.4 16.5273V28.4625Z" fill="black"/>
</svg>
